{
  "accessors": [
    {
      "bufferView": 1,
      "componentType": 5126,
      "count": 9986,
      "max": [
        0,
        52.752532958984375,
        4.9137558937072754
      ],
      "min": [
        -0.75,
        -49.397224426269531,
        -9.0123434066772461
      ],
      "type": "VEC3"
    },
    {
      "bufferView": 1,
      "byteOffset": 119832,
      "componentType": 5126,
      "count": 9986,
      "max": [
        1,
        0.99995684623718262,
        0.9999997615814209
      ],
      "min": [
        -1,
        -0.99999964237213135,
        -0.99999731779098511
      ],
      "type": "VEC3"
    },
    {
      "bufferView": 0,
      "componentType": 5125,
      "count": 59904,
      "max": [
        9985
      ],
      "min": [
        0
      ],
      "type": "SCALAR"
    },
    {
      "bufferView": 1,
      "byteOffset": 239664,
      "componentType": 5126,
      "count": 9986,
      "max": [
        7.0496912002563477,
        52.448215484619141,
        -0.38692900538444519
      ],
      "min": [
        -7.0407629013061523,
        -49.814338684082031,
        -3.1133880615234375
      ],
      "type": "VEC3"
    },
    {
      "bufferView": 1,
      "byteOffset": 359496,
      "componentType": 5126,
      "count": 9986,
      "max": [
        0.99995875358581543,
        0.9993857741355896,
        0.9999992847442627
      ],
      "min": [
        -0.9999624490737915,
        -0.99972116947174072,
        -1
      ],
      "type": "VEC3"
    },
    {
      "bufferView": 0,
      "byteOffset": 239616,
      "componentType": 5125,
      "count": 59904,
      "max": [
        9985
      ],
      "min": [
        0
      ],
      "type": "SCALAR"
    }
  ],
  "asset": {
    "extras": {
      "author": "Huargenn (https://sketchfab.com/Huargenn)",
      "license": "CC-BY-4.0 (http://creativecommons.org/licenses/by/4.0/)",
      "source": "https://sketchfab.com/models/55192f5a8c004c4cbf0ab2df50b749c5",
      "title": "Arrow (Test)"
    },
    "generator": "Sketchfab-3.29.3",
    "version": "2.0"
  },
  "bufferViews": [
    {
      "buffer": 0,
      "byteLength": 479232,
      "byteOffset": 0,
      "name": "floatBufferViews",
      "target": 34963
    },
    {
      "buffer": 0,
      "byteLength": 479328,
      "byteOffset": 479232,
      "byteStride": 12,
      "name": "floatBufferViews",
      "target": 34962
    }
  ],
  "buffers": [
    {
      "byteLength": 958560,
      "uri": "scene.bin"
    }
  ],
  "materials": [
    {
      "doubleSided": true,
      "emissiveFactor": [
        0,
        0,
        0
      ],
      "name": "Scene_-_Root",
      "pbrMetallicRoughness": {
        "baseColorFactor": [
          0.5,
          0.5,
          0.5,
          1
        ],
        "metallicFactor": 0,
        "roughnessFactor": 0.59999999999999998
      }
    }
  ],
  "meshes": [
    {
      "primitives": [
        {
          "attributes": {
            "NORMAL": 1,
            "POSITION": 0
          },
          "indices": 2,
          "material": 0,
          "mode": 4
        }
      ]
    },
    {
      "primitives": [
        {
          "attributes": {
            "NORMAL": 4,
            "POSITION": 3
          },
          "indices": 5,
          "material": 0,
          "mode": 4
        }
      ]
    }
  ],
  "nodes": [
    {
      "children": [
        1
      ],
      "name": "RootNode (gltf orientation matrix)",
      "rotation": [
        -0.70710678118654746,
        -0,
        -0,
        0.70710678118654757
      ]
    },
    {
      "children": [
        2
      ],
      "name": "RootNode (model correction matrix)"
    },
    {
      "children": [
        3,
        4
      ],
      "name": "e8c49fa4254a4c8c90609d410c952400.obj.cleaner"
    },
    {
      "mesh": 0,
      "name": ""
    },
    {
      "mesh": 1,
      "name": ""
    }
  ],
  "scene": 0,
  "scenes": [
    {
      "name": "OSG_Scene",
      "nodes": [
        0
      ]
    }
  ]
}

