{
  "accessors": [
    {
      "bufferView": 2,
      "componentType": 5126,
      "count": 480,
      "max": [
        -0.54790198802947998,
        0.31539198756217957,
        0.057219401001930237
      ],
      "min": [
        -0.79141002893447876,
        0.083214297890663147,
        -0.054035700857639313
      ],
      "type": "VEC3"
    },
    {
      "bufferView": 2,
      "byteOffset": 5760,
      "componentType": 5126,
      "count": 480,
      "max": [
        0.20362395048141479,
        0.9997517466545105,
        0.9999958872795105
      ],
      "min": [
        -0.20631502568721771,
        -0.9976503849029541,
        -0.99998825788497925
      ],
      "type": "VEC3"
    },
    {
      "bufferView": 3,
      "componentType": 5126,
      "count": 480,
      "max": [
        0.26718181371688843,
        0.9988136887550354,
        0.99709761142730713,
        1
      ],
      "min": [
        -0.14234089851379395,
        -0.99998849630355835,
        -0.99672120809555054,
        1
      ],
      "type": "VEC4"
    },
    {
      "bufferView": 1,
      "componentType": 5126,
      "count": 480,
      "max": [
        1.2825299501419067,
        0.99506998062133789
      ],
      "min": [
        0.0058456300757825375,
        0.85004997253417969
      ],
      "type": "VEC2"
    },
    {
      "bufferView": 0,
      "componentType": 5125,
      "count": 2478,
      "max": [
        479
      ],
      "min": [
        0
      ],
      "type": "SCALAR"
    },
    {
      "bufferView": 2,
      "byteOffset": 11520,
      "componentType": 5126,
      "count": 1170,
      "max": [
        -0.71609097719192505,
        0.45193299651145935,
        0.098625399172306061
      ],
      "min": [
        -1.0418399572372437,
        0.16247299313545227,
        0.015110800042748451
      ],
      "type": "VEC3"
    },
    {
      "bufferView": 2,
      "byteOffset": 25560,
      "componentType": 5126,
      "count": 1170,
      "max": [
        0.99851465225219727,
        0.99692034721374512,
        0.99995124340057373
      ],
      "min": [
        -0.99734175205230713,
        -0.99993175268173218,
        -0.99970197677612305
      ],
      "type": "VEC3"
    },
    {
      "bufferView": 3,
      "byteOffset": 7680,
      "componentType": 5126,
      "count": 1170,
      "max": [
        0.9964718222618103,
        0.99791646003723145,
        0.99778515100479126,
        1
      ],
      "min": [
        -0.9961513876914978,
        -0.99874496459960938,
        -0.99894052743911743,
        1
      ],
      "type": "VEC4"
    },
    {
      "bufferView": 1,
      "byteOffset": 3840,
      "componentType": 5126,
      "count": 1170,
      "max": [
        0.85430198907852173,
        0.83693897724151611
      ],
      "min": [
        0.080939397215843201,
        0.66105002164840698
      ],
      "type": "VEC2"
    },
    {
      "bufferView": 0,
      "byteOffset": 9912,
      "componentType": 5125,
      "count": 6264,
      "max": [
        1169
      ],
      "min": [
        0
      ],
      "type": "SCALAR"
    },
    {
      "bufferView": 2,
      "byteOffset": 39600,
      "componentType": 5126,
      "count": 385,
      "max": [
        1,
        0.3032039999961853,
        0.048098199069499969
      ],
      "min": [
        -1,
        -0.011638700030744076,
        -0.044885799288749695
      ],
      "type": "VEC3"
    },
    {
      "bufferView": 2,
      "byteOffset": 44220,
      "componentType": 5126,
      "count": 385,
      "max": [
        0.99934625625610352,
        0.99998599290847778,
        0.99944049119949341
      ],
      "min": [
        -0.99999147653579712,
        -0.99999845027923584,
        -0.99944949150085449
      ],
      "type": "VEC3"
    },
    {
      "bufferView": 3,
      "byteOffset": 26400,
      "componentType": 5126,
      "count": 385,
      "max": [
        0.99999850988388062,
        0.51239579916000366,
        0.99999529123306274,
        1
      ],
      "min": [
        -0.99999898672103882,
        -0.51662224531173706,
        -0.99318873882293701,
        1
      ],
      "type": "VEC4"
    },
    {
      "bufferView": 1,
      "byteOffset": 13200,
      "componentType": 5126,
      "count": 385,
      "max": [
        0.99331998825073242,
        0.82230997085571289
      ],
      "min": [
        0.0024000001139938831,
        0.0056699998676776886
      ],
      "type": "VEC2"
    },
    {
      "bufferView": 0,
      "byteOffset": 34968,
      "componentType": 5125,
      "count": 1854,
      "max": [
        384
      ],
      "min": [
        0
      ],
      "type": "SCALAR"
    },
    {
      "bufferView": 2,
      "byteOffset": 48840,
      "componentType": 5126,
      "count": 532,
      "max": [
        -0.50004798173904419,
        0.38707301020622253,
        0.054428499191999435
      ],
      "min": [
        -0.99404698610305786,
        -0.38707301020622253,
        -0.051267098635435104
      ],
      "type": "VEC3"
    },
    {
      "bufferView": 2,
      "byteOffset": 55224,
      "componentType": 5126,
      "count": 532,
      "max": [
        0.98982447385787964,
        0.99954646825790405,
        0.99985146522521973
      ],
      "min": [
        -0.99996936321258545,
        -0.99988013505935669,
        -0.99986159801483154
      ],
      "type": "VEC3"
    },
    {
      "bufferView": 3,
      "byteOffset": 32560,
      "componentType": 5126,
      "count": 532,
      "max": [
        0.99988019466400146,
        0.95049160718917847,
        0.99999749660491943,
        1
      ],
      "min": [
        -0.99984472990036011,
        -0.68594217300415039,
        -0.99999934434890747,
        1
      ],
      "type": "VEC4"
    },
    {
      "bufferView": 1,
      "byteOffset": 16280,
      "componentType": 5126,
      "count": 532,
      "max": [
        0.98867899179458618,
        0.84249502420425415
      ],
      "min": [
        0.22189000248908997,
        0.36291700601577759
      ],
      "type": "VEC2"
    },
    {
      "bufferView": 0,
      "byteOffset": 42384,
      "componentType": 5125,
      "count": 1938,
      "max": [
        531
      ],
      "min": [
        0
      ],
      "type": "SCALAR"
    }
  ],
  "asset": {
    "extras": {
      "author": "Sergey Egelsky (https://sketchfab.com/egelsky)",
      "license": "CC-BY-4.0 (http://creativecommons.org/licenses/by/4.0/)",
      "source": "https://sketchfab.com/3d-models/hello-kitty-ax-fdade657c4cc47ad96cf428fc10b3120",
      "title": "Hello Kitty Ax"
    },
    "generator": "Sketchfab-7.68.0",
    "version": "2.0"
  },
  "bufferViews": [
    {
      "buffer": 0,
      "byteLength": 50136,
      "byteOffset": 0,
      "name": "floatBufferViews",
      "target": 34963
    },
    {
      "buffer": 0,
      "byteLength": 20536,
      "byteOffset": 50136,
      "byteStride": 8,
      "name": "floatBufferViews",
      "target": 34962
    },
    {
      "buffer": 0,
      "byteLength": 61608,
      "byteOffset": 70672,
      "byteStride": 12,
      "name": "floatBufferViews",
      "target": 34962
    },
    {
      "buffer": 0,
      "byteLength": 41072,
      "byteOffset": 132280,
      "byteStride": 16,
      "name": "floatBufferViews",
      "target": 34962
    }
  ],
  "buffers": [
    {
      "byteLength": 173352,
      "uri": "scene.bin"
    }
  ],
  "images": [
    {
      "uri": "textures/material_baseColor.jpeg"
    },
    {
      "uri": "textures/material_metallicRoughness.png"
    },
    {
      "uri": "textures/material_normal.png"
    }
  ],
  "materials": [
    {
      "doubleSided": true,
      "name": "material",
      "normalTexture": {
        "index": 2,
        "scale": 1,
        "texCoord": 0
      },
      "occlusionTexture": {
        "index": 1,
        "strength": 1,
        "texCoord": 0
      },
      "pbrMetallicRoughness": {
        "baseColorFactor": [
          1,
          1,
          1,
          1
        ],
        "baseColorTexture": {
          "index": 0,
          "texCoord": 0
        },
        "metallicFactor": 1,
        "metallicRoughnessTexture": {
          "index": 1,
          "texCoord": 0
        },
        "roughnessFactor": 1
      }
    }
  ],
  "meshes": [
    {
      "name": "defaultMaterial",
      "primitives": [
        {
          "attributes": {
            "NORMAL": 1,
            "POSITION": 0,
            "TANGENT": 2,
            "TEXCOORD_0": 3
          },
          "indices": 4,
          "material": 0,
          "mode": 4
        }
      ]
    },
    {
      "name": "defaultMaterial",
      "primitives": [
        {
          "attributes": {
            "NORMAL": 6,
            "POSITION": 5,
            "TANGENT": 7,
            "TEXCOORD_0": 8
          },
          "indices": 9,
          "material": 0,
          "mode": 4
        }
      ]
    },
    {
      "name": "defaultMaterial",
      "primitives": [
        {
          "attributes": {
            "NORMAL": 11,
            "POSITION": 10,
            "TANGENT": 12,
            "TEXCOORD_0": 13
          },
          "indices": 14,
          "material": 0,
          "mode": 4
        }
      ]
    },
    {
      "name": "defaultMaterial",
      "primitives": [
        {
          "attributes": {
            "NORMAL": 16,
            "POSITION": 15,
            "TANGENT": 17,
            "TEXCOORD_0": 18
          },
          "indices": 19,
          "material": 0,
          "mode": 4
        }
      ]
    }
  ],
  "nodes": [
    {
      "children": [
        1
      ],
      "name": "RootNode (gltf orientation matrix)",
      "rotation": [
        -0.70710678118654746,
        -0,
        -0,
        0.70710678118654757
      ]
    },
    {
      "children": [
        2
      ],
      "name": "RootNode (model correction matrix)"
    },
    {
      "children": [
        3,
        5,
        7,
        9
      ],
      "matrix": [
        1,
        0,
        0,
        0,
        0,
        -4.3711390063094768e-08,
        0.999999999999999,
        0,
        0,
        -0.999999999999999,
        -4.3711390063094768e-08,
        0,
        0,
        0,
        0,
        1
      ],
      "name": "Collada visual scene group"
    },
    {
      "children": [
        4
      ],
      "name": "silk"
    },
    {
      "mesh": 0,
      "name": "defaultMaterial"
    },
    {
      "children": [
        6
      ],
      "name": "bant_low"
    },
    {
      "mesh": 1,
      "name": "defaultMaterial"
    },
    {
      "children": [
        8
      ],
      "name": "wood_low"
    },
    {
      "mesh": 2,
      "name": "defaultMaterial"
    },
    {
      "children": [
        10
      ],
      "name": "metal_low"
    },
    {
      "mesh": 3,
      "name": "defaultMaterial"
    }
  ],
  "samplers": [
    {
      "magFilter": 9729,
      "minFilter": 9987,
      "wrapS": 10497,
      "wrapT": 10497
    }
  ],
  "scene": 0,
  "scenes": [
    {
      "name": "OSG_Scene",
      "nodes": [
        0
      ]
    }
  ],
  "textures": [
    {
      "sampler": 0,
      "source": 0
    },
    {
      "sampler": 0,
      "source": 1
    },
    {
      "sampler": 0,
      "source": 2
    }
  ]
}

