{
  "accessors": [
    {
      "bufferView": 2,
      "componentType": 5126,
      "count": 5656,
      "max": [
        0.503229022026062,
        10.944417953491211,
        9.40495777130127
      ],
      "min": [
        0.09247463941574097,
        7.094873905181885,
        -9.396282196044922
      ],
      "type": "VEC3"
    },
    {
      "bufferView": 2,
      "byteOffset": 67872,
      "componentType": 5126,
      "count": 5656,
      "max": [
        1.0,
        0.9999886155128479,
        0.9999991655349731
      ],
      "min": [
        -1.0,
        -1.0,
        -0.9999991655349731
      ],
      "type": "VEC3"
    },
    {
      "bufferView": 1,
      "componentType": 5126,
      "count": 5656,
      "max": [
        1.0,
        0.9678992629051208
      ],
      "min": [
        0.0,
        0.027294903993606567
      ],
      "type": "VEC2"
    },
    {
      "bufferView": 0,
      "componentType": 5125,
      "count": 13476,
      "type": "SCALAR"
    }
  ],
  "asset": {
    "extras": {
      "author": "NB (https://sketchfab.com/nial2001)",
      "license": "CC-BY-4.0 (http://creativecommons.org/licenses/by/4.0/)",
      "source": "https://sketchfab.com/3d-models/pink-rangers-bow-power-rangers-b95ee8b3b8844f81968cb62c2a39c283",
      "title": "Pink Ranger's Bow (Power Rangers)"
    },
    "generator": "Sketchfab-11.65.0",
    "version": "2.0"
  },
  "bufferViews": [
    {
      "buffer": 0,
      "byteLength": 53904,
      "name": "floatBufferViews",
      "target": 34963
    },
    {
      "buffer": 0,
      "byteLength": 45248,
      "byteOffset": 53904,
      "byteStride": 8,
      "name": "floatBufferViews",
      "target": 34962
    },
    {
      "buffer": 0,
      "byteLength": 135744,
      "byteOffset": 99152,
      "byteStride": 12,
      "name": "floatBufferViews",
      "target": 34962
    }
  ],
  "buffers": [
    {
      "byteLength": 234896,
      "uri": "scene.bin"
    }
  ],
  "images": [
    {
      "uri": "textures/lambert2_baseColor.jpeg"
    },
    {
      "uri": "textures/lambert2_metallicRoughness.png"
    }
  ],
  "materials": [
    {
      "doubleSided": true,
      "name": "lambert2",
      "pbrMetallicRoughness": {
        "baseColorTexture": {
          "index": 0
        },
        "metallicRoughnessTexture": {
          "index": 1
        }
      }
    }
  ],
  "meshes": [
    {
      "name": "polySurface20_lambert2_0",
      "primitives": [
        {
          "attributes": {
            "NORMAL": 1,
            "POSITION": 0,
            "TEXCOORD_0": 2
          },
          "indices": 3,
          "material": 0,
          "mode": 4
        }
      ]
    }
  ],
  "nodes": [
    {
      "children": [
        1
      ],
      "matrix": [
        0.10238967090845108,
        0.0,
        0.0,
        0.0,
        0.0,
        2.2735074025270992e-17,
        -0.10238967090845108,
        0.0,
        0.0,
        0.10238967090845108,
        2.2735074025270992e-17,
        0.0,
        0.0,
        0.0,
        0.0,
        1.0
      ],
      "name": "Sketchfab_model"
    },
    {
      "children": [
        2
      ],
      "matrix": [
        1.0,
        0.0,
        0.0,
        0.0,
        0.0,
        0.0,
        1.0,
        0.0,
        0.0,
        -1.0,
        0.0,
        0.0,
        0.0,
        0.0,
        0.0,
        1.0
      ],
      "name": "3748789f3a40480cb5bbb2dd8a8cf0e2.fbx"
    },
    {
      "children": [
        3
      ],
      "name": "RootNode"
    },
    {
      "children": [
        4
      ],
      "matrix": [
        1.0,
        0.0,
        0.0,
        0.0,
        0.0,
        0.6899237379764923,
        0.7238820593000937,
        0.0,
        0.0,
        -0.7238820593000937,
        0.6899237379764923,
        0.0,
        0.0,
        2.7999181747436523,
        -6.527814865112305,
        1.0
      ],
      "name": "polySurface20"
    },
    {
      "mesh": 0,
      "name": "polySurface20_lambert2_0"
    }
  ],
  "samplers": [
    {
      "magFilter": 9729,
      "minFilter": 9987,
      "wrapS": 10497,
      "wrapT": 10497
    }
  ],
  "scene": 0,
  "scenes": [
    {
      "name": "Sketchfab_Scene",
      "nodes": [
        0
      ]
    }
  ],
  "textures": [
    {
      "sampler": 0,
      "source": 0
    },
    {
      "sampler": 0,
      "source": 1
    }
  ]
}
